<svg width="1119" height="50" viewBox="0 0 1119 50" fill="none" xmlns="http://www.w3.org/2000/svg">
<g clip-path="url(#clip0_0_759)">
<path d="M35.7677 31V4.88909H46.1214C47.8863 4.88909 49.3309 5.2457 50.4551 5.95891C51.5914 6.66004 52.4315 7.56062 52.9755 8.66066C53.5316 9.76071 53.8096 10.897 53.8096 12.0696C53.8096 13.5081 53.4651 14.729 52.776 15.7324C52.0991 16.7357 51.1743 17.4127 50.0018 17.7632V16.8566C51.6458 17.2313 52.8909 18.011 53.7371 19.1957C54.5953 20.3804 55.0245 21.7282 55.0245 23.2393C55.0245 24.7866 54.7283 26.1405 54.136 27.301C53.5437 28.4614 52.6612 29.3681 51.4886 30.0208C50.3281 30.6736 48.8896 31 47.1731 31H35.7677ZM40.192 26.8839H46.6291C47.3907 26.8839 48.0737 26.7328 48.6781 26.4306C49.2825 26.1163 49.7539 25.6811 50.0924 25.125C50.443 24.5569 50.6183 23.886 50.6183 23.1123C50.6183 22.4112 50.4672 21.7826 50.165 21.2265C49.8627 20.6705 49.4215 20.2292 48.8413 19.9029C48.261 19.5644 47.5659 19.3952 46.756 19.3952H40.192V26.8839ZM40.192 15.3153H46.067C46.6956 15.3153 47.2577 15.1944 47.7533 14.9527C48.2489 14.7109 48.6418 14.3543 48.9319 13.8828C49.2221 13.4114 49.3671 12.8312 49.3671 12.1421C49.3671 11.2355 49.077 10.48 48.4968 9.87555C47.9165 9.27113 47.1066 8.96892 46.067 8.96892H40.192V15.3153ZM67.2951 31.544C65.3368 31.544 63.6263 31.1028 62.1636 30.2203C60.7009 29.3378 59.5646 28.123 58.7547 26.5757C57.9569 25.0162 57.5579 23.2272 57.5579 21.2084C57.5579 19.1534 57.9689 17.3522 58.791 15.8049C59.613 14.2576 60.7553 13.0487 62.218 12.1784C63.6807 11.308 65.3731 10.8728 67.2951 10.8728C69.2655 10.8728 70.9821 11.3141 72.4448 12.1965C73.9075 13.079 75.0438 14.2999 75.8537 15.8593C76.6636 17.4066 77.0686 19.1896 77.0686 21.2084C77.0686 23.2393 76.6576 25.0344 75.8356 26.5938C75.0257 28.1411 73.8894 29.356 72.4267 30.2384C70.964 31.1088 69.2535 31.544 67.2951 31.544ZM67.2951 27.446C69.0359 27.446 70.3293 26.8658 71.1755 25.7053C72.0217 24.5448 72.4448 23.0458 72.4448 21.2084C72.4448 19.3105 72.0157 17.7995 71.1574 16.6753C70.2991 15.539 69.0117 14.9708 67.2951 14.9708C66.1226 14.9708 65.1555 15.2367 64.3939 15.7686C63.6444 16.2884 63.0884 17.0198 62.7257 17.9627C62.3631 18.8935 62.1818 19.9754 62.1818 21.2084C62.1818 23.1063 62.6109 24.6234 63.4692 25.7597C64.3395 26.8839 65.6149 27.446 67.2951 27.446ZM81.4264 31V4.34511H85.7963V31H81.4264ZM99.0793 31.544C97.2781 31.544 95.7066 31.0907 94.3648 30.184C93.023 29.2774 91.9834 28.0444 91.246 26.485C90.5086 24.9256 90.1399 23.1667 90.1399 21.2084C90.1399 19.2259 90.5086 17.461 91.246 15.9137C91.9955 14.3543 93.0532 13.1273 94.4192 12.2328C95.7852 11.3262 97.3929 10.8728 99.2425 10.8728C101.104 10.8728 102.663 11.3262 103.921 12.2328C105.19 13.1273 106.151 14.3543 106.804 15.9137C107.457 17.4731 107.783 19.238 107.783 21.2084C107.783 23.1546 107.457 24.9135 106.804 26.485C106.151 28.0444 105.178 29.2774 103.884 30.184C102.591 31.0907 100.989 31.544 99.0793 31.544ZM99.7502 27.6273C100.923 27.6273 101.866 27.3614 102.579 26.8295C103.304 26.2855 103.83 25.53 104.156 24.5629C104.495 23.5959 104.664 22.4777 104.664 21.2084C104.664 19.927 104.495 18.8089 104.156 17.8539C103.83 16.8868 103.316 16.1373 102.615 15.6054C101.914 15.0615 101.007 14.7895 99.8952 14.7895C98.7227 14.7895 97.7556 15.0796 96.994 15.6598C96.2325 16.228 95.6704 17.0017 95.3077 17.9808C94.9451 18.9479 94.7637 20.0237 94.7637 21.2084C94.7637 22.4052 94.939 23.4931 95.2896 24.4723C95.6522 25.4393 96.2022 26.207 96.9396 26.7751C97.677 27.3433 98.6139 27.6273 99.7502 27.6273ZM104.664 31V17.2555H104.12V4.88909H108.526V31H104.664ZM122.26 31.544C120.301 31.544 118.591 31.1028 117.128 30.2203C115.665 29.3378 114.529 28.123 113.719 26.5757C112.921 25.0162 112.522 23.2272 112.522 21.2084C112.522 19.1534 112.933 17.3522 113.755 15.8049C114.577 14.2576 115.72 13.0487 117.182 12.1784C118.645 11.308 120.337 10.8728 122.26 10.8728C124.23 10.8728 125.946 11.3141 127.409 12.1965C128.872 13.079 130.008 14.2999 130.818 15.8593C131.628 17.4066 132.033 19.1896 132.033 21.2084C132.033 23.2393 131.622 25.0344 130.8 26.5938C129.99 28.1411 128.854 29.356 127.391 30.2384C125.928 31.1088 124.218 31.544 122.26 31.544ZM122.26 27.446C124 27.446 125.294 26.8658 126.14 25.7053C126.986 24.5448 127.409 23.0458 127.409 21.2084C127.409 19.3105 126.98 17.7995 126.122 16.6753C125.263 15.539 123.976 14.9708 122.26 14.9708C121.087 14.9708 120.12 15.2367 119.358 15.7686C118.609 16.2884 118.053 17.0198 117.69 17.9627C117.327 18.8935 117.146 19.9754 117.146 21.2084C117.146 23.1063 117.575 24.6234 118.434 25.7597C119.304 26.8839 120.579 27.446 122.26 27.446Z" fill="#0A2640"/>
<path d="M0 17H14.3176C19.201 17 23.1597 20.9587 23.1597 25.8421C23.1597 30.7255 19.201 34.6842 14.3176 34.6842H0V17Z" fill="#0A2640"/>
<path d="M0 1.52637H9.47954C13.1421 1.52637 16.1111 4.49543 16.1111 8.15795C16.1111 11.8205 13.1421 14.7895 9.47954 14.7895H0V1.52637Z" fill="#0A2640"/>
<g clip-path="url(#clip1_0_759)">
<g clip-path="url(#clip2_0_759)">
<path d="M210.16 3.16588C210.123 3.09373 210.1 3.01493 210.093 2.93397C210.086 2.85301 210.095 2.77147 210.12 2.69403C210.144 2.61658 210.184 2.54473 210.236 2.4826C210.289 2.42047 210.353 2.36926 210.425 2.3319C212.639 1.20591 215.099 0.648681 217.582 0.710438C220.065 0.772195 222.494 1.451 224.65 2.68566C224.721 2.72632 224.783 2.78057 224.832 2.8453C224.882 2.91002 224.918 2.98393 224.939 3.06276C224.96 3.14159 224.965 3.22379 224.954 3.30461C224.943 3.38542 224.916 3.46326 224.875 3.53363L217.754 15.7549C217.699 15.8485 217.621 15.9262 217.528 15.9801C217.434 16.034 217.327 16.0623 217.219 16.0621H217.204C217.093 16.0592 216.985 16.0266 216.891 15.9678C216.797 15.909 216.72 15.8261 216.669 15.7277L210.16 3.16588ZM216.837 19.3215V19.3202L210.328 6.75843C210.252 6.613 210.122 6.50339 209.966 6.45351C209.81 6.40364 209.641 6.41757 209.495 6.49225C207.76 7.38175 206.218 8.6051 204.957 10.0921C203.696 11.579 202.742 13.3004 202.148 15.1572C201.554 17.0141 201.333 18.97 201.497 20.9126C201.661 22.8552 202.207 24.7463 203.103 26.4774C204 28.2085 205.23 29.7454 206.722 31C208.214 32.2546 209.94 33.2021 211.799 33.7882C213.658 34.3743 215.615 34.5875 217.557 34.4154C219.499 34.2434 221.388 33.6895 223.115 32.7856C223.26 32.7096 223.369 32.5794 223.419 32.4232C223.468 32.2671 223.454 32.0977 223.379 31.9521L216.837 19.3215ZM224.467 31.195L224.517 31.2941C224.592 31.4401 224.721 31.5512 224.876 31.6037C224.94 31.6249 225.007 31.6333 225.074 31.6285C225.172 31.6258 225.269 31.6048 225.359 31.5666C225.585 31.4548 225.804 31.3308 226.016 31.195C226.646 30.8295 227.246 30.4153 227.812 29.9563H223.823L224.467 31.195ZM223.179 28.7177H229.162C229.546 28.3312 229.902 27.9172 230.227 27.479H222.535L223.179 28.7177ZM221.903 26.2404H231.106C231.36 25.8427 231.588 25.429 231.788 25.0018H221.259L221.903 26.2404ZM220.615 23.7631H232.333C232.497 23.3588 232.638 22.9452 232.754 22.5245H219.971L220.615 23.7631ZM219.327 21.2858H233.063C233.138 20.8771 233.2 20.4683 233.237 20.0472H218.695L219.327 21.2858ZM225.966 5.62941C225.897 5.58618 225.819 5.55829 225.737 5.54761C225.656 5.53693 225.574 5.5437 225.495 5.56748C225.415 5.5858 225.34 5.62058 225.273 5.66962C225.207 5.71866 225.152 5.78089 225.111 5.85237L224.777 6.42214H227.168C226.781 6.1366 226.38 5.87198 225.966 5.62941ZM228.666 7.66078H224.059L223.34 8.89942H229.843C229.477 8.46281 229.084 8.04915 228.666 7.66078ZM230.772 10.1381H222.609L221.891 11.3767H231.528C231.304 10.9472 231.052 10.5333 230.772 10.1381ZM232.122 12.6153H221.172L220.454 13.854H232.605C232.468 13.4322 232.307 13.0187 232.122 12.6153ZM232.952 15.0926H219.723L219.005 16.3313H233.175C233.126 15.9143 233.051 15.5006 232.952 15.0926ZM233.299 17.5699H218.286L217.989 18.0778C217.936 18.1672 217.906 18.2691 217.904 18.3734C217.902 18.4777 217.927 18.5807 217.977 18.6723L218.051 18.8086H233.324C233.336 18.6847 233.336 18.5484 233.336 18.4246C233.336 18.1397 233.324 17.8548 233.299 17.5699Z" fill="#0A2640"/>
<path d="M209.875 5.88004C209.648 5.44981 209.114 5.28302 208.697 5.5338C205.397 7.51916 202.932 10.6551 201.788 14.3539C200.558 18.3341 200.959 22.6399 202.904 26.3243C204.848 30.0087 208.176 32.7698 212.156 34.0002C215.855 35.1436 219.835 34.8779 223.337 33.2741C223.779 33.0715 223.943 32.5363 223.716 32.106L216.796 18.993L209.875 5.88004Z" fill="#0A2640"/>
</g>
<path d="M255.436 6.96001C257.158 6.96001 258.624 7.23629 259.835 7.78886C261.047 8.34142 261.971 9.13839 262.609 10.1798C263.246 11.2211 263.565 12.4857 263.565 13.9733C263.565 15.461 263.246 16.7255 262.609 17.7669C261.971 18.8083 261.047 19.6053 259.835 20.1578C258.624 20.7104 257.158 20.9867 255.436 20.9867H251.26V28H245.777V6.96001H255.436ZM254.575 16.8743C255.723 16.8743 256.584 16.6405 257.158 16.173C257.753 15.6842 258.05 14.951 258.05 13.9733C258.05 12.9957 257.753 12.2731 257.158 11.8056C256.584 11.3168 255.723 11.0724 254.575 11.0724H251.26V16.8743H254.575ZM266.688 28V12.0606H271.47L271.693 15.5035C272.097 14.3134 272.692 13.3889 273.479 12.7301C274.286 12.0712 275.306 11.7418 276.539 11.7418C276.943 11.7418 277.283 11.7737 277.559 11.8375C277.857 11.9012 278.09 11.9862 278.26 12.0925L277.718 16.5555C277.506 16.4705 277.23 16.4068 276.89 16.3642C276.571 16.3005 276.178 16.2686 275.71 16.2686C275.072 16.2686 274.477 16.4068 273.925 16.683C273.372 16.9593 272.926 17.3737 272.586 17.9263C272.267 18.4576 272.108 19.1377 272.108 19.9665V28H266.688ZM287.978 28.3188C286.214 28.3188 284.684 27.9894 283.387 27.3305C282.112 26.6717 281.124 25.726 280.423 24.4933C279.721 23.2607 279.371 21.773 279.371 20.0303C279.371 18.2876 279.721 16.7999 280.423 15.5673C281.124 14.3346 282.102 13.3889 283.355 12.7301C284.631 12.0712 286.086 11.7418 287.723 11.7418C289.402 11.7418 290.826 12.0712 291.995 12.7301C293.185 13.3676 294.088 14.2602 294.704 15.4079C295.321 16.5343 295.629 17.8307 295.629 19.2971C295.629 19.6796 295.618 20.0622 295.597 20.4447C295.576 20.8273 295.544 21.1461 295.501 21.4011H282.877V18.5001H293.11L290.528 19.4884C290.528 18.2132 290.294 17.2356 289.827 16.5555C289.381 15.8754 288.679 15.5354 287.723 15.5354C287.043 15.5354 286.458 15.6948 285.97 16.0136C285.502 16.3324 285.141 16.8318 284.886 17.5119C284.652 18.192 284.535 19.0633 284.535 20.1259C284.535 21.1673 284.673 22.0174 284.949 22.6762C285.226 23.3138 285.619 23.7814 286.129 24.0789C286.639 24.3552 287.255 24.4933 287.978 24.4933C288.785 24.4933 289.423 24.3339 289.891 24.0152C290.379 23.6964 290.741 23.2501 290.974 22.6762L295.31 24.1108C295.012 25.0246 294.492 25.8004 293.748 26.4379C293.025 27.0543 292.154 27.5218 291.134 27.8406C290.135 28.1594 289.083 28.3188 287.978 28.3188ZM305.355 28.3188C303.761 28.3188 302.273 28.0638 300.892 27.5537C299.532 27.0224 298.405 26.2679 297.513 25.2903L300.063 22.2937C300.594 22.9738 301.296 23.5476 302.167 24.0152C303.06 24.4615 304.048 24.6846 305.132 24.6846C305.791 24.6846 306.333 24.589 306.758 24.3977C307.183 24.2064 307.395 23.9089 307.395 23.5051C307.395 23.2076 307.289 22.9738 307.077 22.8038C306.864 22.6125 306.439 22.4531 305.801 22.3256L303.57 21.8793C301.572 21.4755 300.148 20.8804 299.298 20.0941C298.469 19.2865 298.055 18.2345 298.055 16.9381C298.055 16.0667 298.32 15.2379 298.852 14.4515C299.383 13.6439 300.201 12.9957 301.306 12.5069C302.412 11.9969 303.825 11.7418 305.546 11.7418C307.162 11.7418 308.585 11.9756 309.818 12.4432C311.051 12.9107 312.028 13.5908 312.751 14.4834L310.169 17.4162C309.659 16.7787 309 16.2792 308.192 15.9179C307.385 15.5567 306.577 15.376 305.769 15.376C305.259 15.376 304.824 15.4291 304.462 15.5354C304.122 15.6204 303.867 15.7479 303.697 15.9179C303.527 16.088 303.442 16.3005 303.442 16.5555C303.442 16.8318 303.57 17.0762 303.825 17.2887C304.101 17.48 304.601 17.65 305.323 17.7988L308.224 18.3726C309.861 18.6701 311.04 19.2121 311.763 19.9984C312.485 20.7848 312.847 21.7305 312.847 22.8356C312.847 23.877 312.57 24.8121 312.018 25.641C311.465 26.4698 310.636 27.1286 309.531 27.6175C308.426 28.085 307.034 28.3188 305.355 28.3188ZM322.321 6.99189V22.3256C322.321 23.0907 322.502 23.6432 322.863 23.9833C323.246 24.3021 323.766 24.4615 324.425 24.4615C324.935 24.4615 325.371 24.4083 325.732 24.3021C326.115 24.1745 326.455 23.9939 326.752 23.7601L327.326 27.1074C326.795 27.4899 326.125 27.7875 325.318 28C324.51 28.2125 323.681 28.3188 322.831 28.3188C321.62 28.3188 320.568 28.1488 319.675 27.8087C318.804 27.4687 318.124 26.9267 317.635 26.1829C317.167 25.4391 316.923 24.4508 316.902 23.2182V8.49019L322.321 6.99189ZM327.071 12.0606V15.9179H314.16V12.0606H327.071ZM337.161 11.7418C338.84 11.7418 340.307 12.0712 341.561 12.7301C342.836 13.3676 343.824 14.3134 344.525 15.5673C345.248 16.7999 345.609 18.2876 345.609 20.0303C345.609 21.773 345.248 23.2713 344.525 24.5252C343.824 25.7579 342.836 26.7036 341.561 27.3624C340.307 28 338.84 28.3188 337.161 28.3188C335.525 28.3188 334.069 28 332.794 27.3624C331.519 26.7036 330.52 25.7579 329.797 24.5252C329.096 23.2713 328.745 21.773 328.745 20.0303C328.745 18.2876 329.096 16.7999 329.797 15.5673C330.52 14.3134 331.519 13.3676 332.794 12.7301C334.069 12.0712 335.525 11.7418 337.161 11.7418ZM337.161 15.5992C336.545 15.5992 336.014 15.7479 335.567 16.0455C335.121 16.343 334.781 16.8212 334.547 17.48C334.314 18.1388 334.197 18.9889 334.197 20.0303C334.197 21.0717 334.314 21.9218 334.547 22.5806C334.781 23.2182 335.121 23.6964 335.567 24.0152C336.014 24.3127 336.545 24.4615 337.161 24.4615C337.799 24.4615 338.341 24.3127 338.787 24.0152C339.233 23.6964 339.574 23.2182 339.807 22.5806C340.041 21.9218 340.158 21.0717 340.158 20.0303C340.158 18.9889 340.041 18.1388 339.807 17.48C339.574 16.8212 339.233 16.343 338.787 16.0455C338.341 15.7479 337.799 15.5992 337.161 15.5992Z" fill="#0A2640"/>
</g>
<path d="M439.15 31V4.88909H449.504C451.269 4.88909 452.713 5.2457 453.837 5.95891C454.974 6.66004 455.814 7.56062 456.358 8.66066C456.914 9.76071 457.192 10.897 457.192 12.0696C457.192 13.5081 456.847 14.729 456.158 15.7324C455.481 16.7357 454.557 17.4127 453.384 17.7632V16.8566C455.028 17.2313 456.273 18.011 457.119 19.1957C457.978 20.3804 458.407 21.7282 458.407 23.2393C458.407 24.7866 458.111 26.1405 457.518 27.301C456.926 28.4614 456.044 29.3681 454.871 30.0208C453.71 30.6736 452.272 31 450.555 31H439.15ZM443.574 26.8839H450.011C450.773 26.8839 451.456 26.7328 452.06 26.4306C452.665 26.1163 453.136 25.6811 453.475 25.125C453.825 24.5569 454.001 23.886 454.001 23.1123C454.001 22.4112 453.849 21.7826 453.547 21.2265C453.245 20.6705 452.804 20.2292 452.224 19.9029C451.643 19.5644 450.948 19.3952 450.138 19.3952H443.574V26.8839ZM443.574 15.3153H449.449C450.078 15.3153 450.64 15.1944 451.136 14.9527C451.631 14.7109 452.024 14.3543 452.314 13.8828C452.604 13.4114 452.749 12.8312 452.749 12.1421C452.749 11.2355 452.459 10.48 451.879 9.87555C451.299 9.27113 450.489 8.96892 449.449 8.96892H443.574V15.3153ZM470.677 31.544C468.719 31.544 467.009 31.1028 465.546 30.2203C464.083 29.3378 462.947 28.123 462.137 26.5757C461.339 25.0162 460.94 23.2272 460.94 21.2084C460.94 19.1534 461.351 17.3522 462.173 15.8049C462.995 14.2576 464.138 13.0487 465.6 12.1784C467.063 11.308 468.755 10.8728 470.677 10.8728C472.648 10.8728 474.364 11.3141 475.827 12.1965C477.29 13.079 478.426 14.2999 479.236 15.8593C480.046 17.4066 480.451 19.1896 480.451 21.2084C480.451 23.2393 480.04 25.0344 479.218 26.5938C478.408 28.1411 477.272 29.356 475.809 30.2384C474.346 31.1088 472.636 31.544 470.677 31.544ZM470.677 27.446C472.418 27.446 473.712 26.8658 474.558 25.7053C475.404 24.5448 475.827 23.0458 475.827 21.2084C475.827 19.3105 475.398 17.7995 474.54 16.6753C473.681 15.539 472.394 14.9708 470.677 14.9708C469.505 14.9708 468.538 15.2367 467.776 15.7686C467.027 16.2884 466.471 17.0198 466.108 17.9627C465.745 18.8935 465.564 19.9754 465.564 21.2084C465.564 23.1063 465.993 24.6234 466.851 25.7597C467.722 26.8839 468.997 27.446 470.677 27.446ZM484.809 31V4.34511H489.179V31H484.809ZM502.462 31.544C500.66 31.544 499.089 31.0907 497.747 30.184C496.405 29.2774 495.366 28.0444 494.628 26.485C493.891 24.9256 493.522 23.1667 493.522 21.2084C493.522 19.2259 493.891 17.461 494.628 15.9137C495.378 14.3543 496.436 13.1273 497.802 12.2328C499.168 11.3262 500.775 10.8728 502.625 10.8728C504.486 10.8728 506.046 11.3262 507.303 12.2328C508.572 13.1273 509.533 14.3543 510.186 15.9137C510.839 17.4731 511.165 19.238 511.165 21.2084C511.165 23.1546 510.839 24.9135 510.186 26.485C509.533 28.0444 508.56 29.2774 507.267 30.184C505.973 31.0907 504.372 31.544 502.462 31.544ZM503.133 27.6273C504.305 27.6273 505.248 27.3614 505.961 26.8295C506.686 26.2855 507.212 25.53 507.539 24.5629C507.877 23.5959 508.046 22.4777 508.046 21.2084C508.046 19.927 507.877 18.8089 507.539 17.8539C507.212 16.8868 506.699 16.1373 505.997 15.6054C505.296 15.0615 504.39 14.7895 503.278 14.7895C502.105 14.7895 501.138 15.0796 500.376 15.6598C499.615 16.228 499.053 17.0017 498.69 17.9808C498.327 18.9479 498.146 20.0237 498.146 21.2084C498.146 22.4052 498.321 23.4931 498.672 24.4723C499.035 25.4393 499.585 26.207 500.322 26.7751C501.059 27.3433 501.996 27.6273 503.133 27.6273ZM508.046 31V17.2555H507.502V4.88909H511.909V31H508.046ZM525.642 31.544C523.684 31.544 521.973 31.1028 520.51 30.2203C519.048 29.3378 517.911 28.123 517.101 26.5757C516.304 25.0162 515.905 23.2272 515.905 21.2084C515.905 19.1534 516.316 17.3522 517.138 15.8049C517.96 14.2576 519.102 13.0487 520.565 12.1784C522.027 11.308 523.72 10.8728 525.642 10.8728C527.612 10.8728 529.329 11.3141 530.791 12.1965C532.254 13.079 533.39 14.2999 534.2 15.8593C535.01 17.4066 535.415 19.1896 535.415 21.2084C535.415 23.2393 535.004 25.0344 534.182 26.5938C533.372 28.1411 532.236 29.356 530.773 30.2384C529.311 31.1088 527.6 31.544 525.642 31.544ZM525.642 27.446C527.383 27.446 528.676 26.8658 529.522 25.7053C530.368 24.5448 530.791 23.0458 530.791 21.2084C530.791 19.3105 530.362 17.7995 529.504 16.6753C528.646 15.539 527.358 14.9708 525.642 14.9708C524.469 14.9708 523.502 15.2367 522.741 15.7686C521.991 16.2884 521.435 17.0198 521.072 17.9627C520.71 18.8935 520.528 19.9754 520.528 21.2084C520.528 23.1063 520.958 24.6234 521.816 25.7597C522.686 26.8839 523.962 27.446 525.642 27.446Z" fill="#0A2640"/>
<path d="M403.382 17H417.7C422.583 17 426.542 20.9587 426.542 25.8421C426.542 30.7255 422.583 34.6842 417.7 34.6842H403.382V17Z" fill="#0A2640"/>
<path d="M403.382 1.52637H412.862C416.524 1.52637 419.493 4.49543 419.493 8.15795C419.493 11.8205 416.524 14.7895 412.862 14.7895H403.382V1.52637Z" fill="#0A2640"/>
<g clip-path="url(#clip3_0_759)">
<g clip-path="url(#clip4_0_759)">
<path d="M613.542 3.16588C613.505 3.09373 613.482 3.01493 613.475 2.93397C613.468 2.85301 613.477 2.77147 613.502 2.69403C613.527 2.61658 613.566 2.54473 613.619 2.4826C613.671 2.42047 613.735 2.36926 613.807 2.3319C616.021 1.20591 618.481 0.648681 620.964 0.710438C623.448 0.772195 625.877 1.451 628.032 2.68566C628.103 2.72632 628.165 2.78057 628.214 2.8453C628.264 2.91002 628.3 2.98393 628.321 3.06276C628.342 3.14159 628.347 3.22379 628.336 3.30461C628.325 3.38542 628.298 3.46326 628.257 3.53363L621.136 15.7549C621.082 15.8485 621.004 15.9262 620.91 15.9801C620.816 16.034 620.71 16.0623 620.602 16.0621H620.586C620.475 16.0592 620.367 16.0266 620.273 15.9678C620.179 15.909 620.102 15.8261 620.051 15.7277L613.542 3.16588ZM620.22 19.3215V19.3202L613.71 6.75843C613.635 6.613 613.505 6.50339 613.349 6.45351C613.192 6.40364 613.023 6.41757 612.877 6.49225C611.142 7.38175 609.6 8.6051 608.339 10.0921C607.079 11.579 606.124 13.3004 605.53 15.1572C604.936 17.0141 604.715 18.97 604.879 20.9126C605.043 22.8552 605.589 24.7463 606.486 26.4774C607.382 28.2085 608.612 29.7454 610.104 31C611.597 32.2546 613.322 33.2021 615.181 33.7882C617.04 34.3743 618.997 34.5875 620.939 34.4154C622.881 34.2434 624.77 33.6895 626.497 32.7856C626.642 32.7096 626.751 32.5794 626.801 32.4232C626.85 32.2671 626.836 32.0977 626.761 31.9521L620.22 19.3215ZM627.85 31.195L627.899 31.2941C627.974 31.4401 628.103 31.5512 628.258 31.6037C628.322 31.6249 628.389 31.6333 628.457 31.6285C628.555 31.6258 628.651 31.6048 628.741 31.5666C628.967 31.4548 629.186 31.3308 629.398 31.195C630.028 30.8295 630.628 30.4153 631.194 29.9563H627.206L627.85 31.195ZM626.561 28.7177H632.544C632.929 28.3312 633.285 27.9172 633.609 27.479H625.917L626.561 28.7177ZM625.286 26.2404H634.489C634.742 25.8427 634.97 25.429 635.17 25.0018H624.642L625.286 26.2404ZM623.997 23.7631H635.715C635.879 23.3588 636.02 22.9452 636.136 22.5245H623.353L623.997 23.7631ZM622.709 21.2858H636.446C636.52 20.8771 636.582 20.4683 636.619 20.0472H622.078L622.709 21.2858ZM629.348 5.62941C629.279 5.58618 629.201 5.55829 629.12 5.54761C629.039 5.53693 628.956 5.5437 628.878 5.56748C628.797 5.5858 628.722 5.62058 628.656 5.66962C628.59 5.71866 628.534 5.78089 628.494 5.85237L628.159 6.42214H630.55C630.164 6.1366 629.763 5.87198 629.348 5.62941ZM632.049 7.66078H627.441L626.722 8.89942H633.225C632.859 8.46281 632.466 8.04915 632.049 7.66078ZM634.154 10.1381H625.992L625.273 11.3767H634.91C634.686 10.9472 634.434 10.5333 634.154 10.1381ZM635.504 12.6153H624.555L623.836 13.854H635.987C635.85 13.4322 635.689 13.0187 635.504 12.6153ZM636.334 15.0926H623.106L622.387 16.3313H636.557C636.508 15.9143 636.434 15.5006 636.334 15.0926ZM636.681 17.5699H621.669L621.372 18.0778C621.318 18.1672 621.288 18.2691 621.286 18.3734C621.284 18.4777 621.309 18.5807 621.359 18.6723L621.433 18.8086H636.706C636.718 18.6847 636.718 18.5484 636.718 18.4246C636.718 18.1397 636.706 17.8548 636.681 17.5699Z" fill="#0A2640"/>
<path d="M613.258 5.88004C613.031 5.44981 612.496 5.28302 612.079 5.5338C608.78 7.51916 606.314 10.6551 605.171 14.3539C603.94 18.3341 604.342 22.6399 606.286 26.3243C608.23 30.0087 611.559 32.7698 615.539 34.0002C619.238 35.1436 623.218 34.8779 626.719 33.2741C627.161 33.0715 627.325 32.5363 627.098 32.106L620.178 18.993L613.258 5.88004Z" fill="#0A2640"/>
</g>
<path d="M658.818 6.96001C660.54 6.96001 662.006 7.23629 663.218 7.78886C664.429 8.34142 665.354 9.13839 665.991 10.1798C666.629 11.2211 666.948 12.4857 666.948 13.9733C666.948 15.461 666.629 16.7255 665.991 17.7669C665.354 18.8083 664.429 19.6053 663.218 20.1578C662.006 20.7104 660.54 20.9867 658.818 20.9867H654.642V28H649.159V6.96001H658.818ZM657.958 16.8743C659.105 16.8743 659.966 16.6405 660.54 16.173C661.135 15.6842 661.433 14.951 661.433 13.9733C661.433 12.9957 661.135 12.2731 660.54 11.8056C659.966 11.3168 659.105 11.0724 657.958 11.0724H654.642V16.8743H657.958ZM670.071 28V12.0606H674.852L675.076 15.5035C675.479 14.3134 676.074 13.3889 676.861 12.7301C677.668 12.0712 678.689 11.7418 679.921 11.7418C680.325 11.7418 680.665 11.7737 680.941 11.8375C681.239 11.9012 681.473 11.9862 681.643 12.0925L681.101 16.5555C680.888 16.4705 680.612 16.4068 680.272 16.3642C679.953 16.3005 679.56 16.2686 679.092 16.2686C678.455 16.2686 677.86 16.4068 677.307 16.683C676.755 16.9593 676.308 17.3737 675.968 17.9263C675.649 18.4576 675.49 19.1377 675.49 19.9665V28H670.071ZM691.36 28.3188C689.596 28.3188 688.066 27.9894 686.77 27.3305C685.495 26.6717 684.506 25.726 683.805 24.4933C683.104 23.2607 682.753 21.773 682.753 20.0303C682.753 18.2876 683.104 16.7999 683.805 15.5673C684.506 14.3346 685.484 13.3889 686.738 12.7301C688.013 12.0712 689.469 11.7418 691.105 11.7418C692.784 11.7418 694.208 12.0712 695.377 12.7301C696.567 13.3676 697.47 14.2602 698.087 15.4079C698.703 16.5343 699.011 17.8307 699.011 19.2971C699.011 19.6796 699 20.0622 698.979 20.4447C698.958 20.8273 698.926 21.1461 698.884 21.4011H686.26V18.5001H696.493L693.911 19.4884C693.911 18.2132 693.677 17.2356 693.209 16.5555C692.763 15.8754 692.062 15.5354 691.105 15.5354C690.425 15.5354 689.841 15.6948 689.352 16.0136C688.884 16.3324 688.523 16.8318 688.268 17.5119C688.034 18.192 687.917 19.0633 687.917 20.1259C687.917 21.1673 688.055 22.0174 688.332 22.6762C688.608 23.3138 689.001 23.7814 689.511 24.0789C690.021 24.3552 690.638 24.4933 691.36 24.4933C692.168 24.4933 692.805 24.3339 693.273 24.0152C693.762 23.6964 694.123 23.2501 694.357 22.6762L698.692 24.1108C698.395 25.0246 697.874 25.8004 697.13 26.4379C696.408 27.0543 695.536 27.5218 694.516 27.8406C693.517 28.1594 692.465 28.3188 691.36 28.3188ZM708.737 28.3188C707.143 28.3188 705.656 28.0638 704.274 27.5537C702.914 27.0224 701.788 26.2679 700.895 25.2903L703.445 22.2937C703.977 22.9738 704.678 23.5476 705.549 24.0152C706.442 24.4615 707.43 24.6846 708.514 24.6846C709.173 24.6846 709.715 24.589 710.14 24.3977C710.565 24.2064 710.778 23.9089 710.778 23.5051C710.778 23.2076 710.671 22.9738 710.459 22.8038C710.246 22.6125 709.821 22.4531 709.184 22.3256L706.952 21.8793C704.954 21.4755 703.531 20.8804 702.68 20.0941C701.852 19.2865 701.437 18.2345 701.437 16.9381C701.437 16.0667 701.703 15.2379 702.234 14.4515C702.765 13.6439 703.584 12.9957 704.689 12.5069C705.794 11.9969 707.207 11.7418 708.929 11.7418C710.544 11.7418 711.968 11.9756 713.2 12.4432C714.433 12.9107 715.411 13.5908 716.133 14.4834L713.551 17.4162C713.041 16.7787 712.382 16.2792 711.575 15.9179C710.767 15.5567 709.959 15.376 709.152 15.376C708.642 15.376 708.206 15.4291 707.845 15.5354C707.505 15.6204 707.25 15.7479 707.08 15.9179C706.91 16.088 706.825 16.3005 706.825 16.5555C706.825 16.8318 706.952 17.0762 707.207 17.2887C707.483 17.48 707.983 17.65 708.705 17.7988L711.606 18.3726C713.243 18.6701 714.422 19.2121 715.145 19.9984C715.868 20.7848 716.229 21.7305 716.229 22.8356C716.229 23.877 715.953 24.8121 715.4 25.641C714.847 26.4698 714.019 27.1286 712.913 27.6175C711.808 28.085 710.416 28.3188 708.737 28.3188ZM725.703 6.99189V22.3256C725.703 23.0907 725.884 23.6432 726.245 23.9833C726.628 24.3021 727.149 24.4615 727.807 24.4615C728.317 24.4615 728.753 24.4083 729.114 24.3021C729.497 24.1745 729.837 23.9939 730.135 23.7601L730.708 27.1074C730.177 27.4899 729.508 27.7875 728.7 28C727.892 28.2125 727.064 28.3188 726.213 28.3188C725.002 28.3188 723.95 28.1488 723.057 27.8087C722.186 27.4687 721.506 26.9267 721.017 26.1829C720.55 25.4391 720.305 24.4508 720.284 23.2182V8.49019L725.703 6.99189ZM730.453 12.0606V15.9179H717.542V12.0606H730.453ZM740.544 11.7418C742.223 11.7418 743.689 12.0712 744.943 12.7301C746.218 13.3676 747.206 14.3134 747.908 15.5673C748.63 16.7999 748.992 18.2876 748.992 20.0303C748.992 21.773 748.63 23.2713 747.908 24.5252C747.206 25.7579 746.218 26.7036 744.943 27.3624C743.689 28 742.223 28.3188 740.544 28.3188C738.907 28.3188 737.451 28 736.176 27.3624C734.901 26.7036 733.902 25.7579 733.18 24.5252C732.478 23.2713 732.128 21.773 732.128 20.0303C732.128 18.2876 732.478 16.7999 733.18 15.5673C733.902 14.3134 734.901 13.3676 736.176 12.7301C737.451 12.0712 738.907 11.7418 740.544 11.7418ZM740.544 15.5992C739.927 15.5992 739.396 15.7479 738.95 16.0455C738.503 16.343 738.163 16.8212 737.93 17.48C737.696 18.1388 737.579 18.9889 737.579 20.0303C737.579 21.0717 737.696 21.9218 737.93 22.5806C738.163 23.2182 738.503 23.6964 738.95 24.0152C739.396 24.3127 739.927 24.4615 740.544 24.4615C741.181 24.4615 741.723 24.3127 742.169 24.0152C742.616 23.6964 742.956 23.2182 743.19 22.5806C743.423 21.9218 743.54 21.0717 743.54 20.0303C743.54 18.9889 743.423 18.1388 743.19 17.48C742.956 16.8212 742.616 16.343 742.169 16.0455C741.723 15.7479 741.181 15.5992 740.544 15.5992Z" fill="#0A2640"/>
</g>
<path d="M842.532 31V4.88909H852.886C854.651 4.88909 856.096 5.2457 857.22 5.95891C858.356 6.66004 859.196 7.56062 859.74 8.66066C860.296 9.76071 860.574 10.897 860.574 12.0696C860.574 13.5081 860.23 14.729 859.541 15.7324C858.864 16.7357 857.939 17.4127 856.766 17.7632V16.8566C858.41 17.2313 859.656 18.011 860.502 19.1957C861.36 20.3804 861.789 21.7282 861.789 23.2393C861.789 24.7866 861.493 26.1405 860.901 27.301C860.308 28.4614 859.426 29.3681 858.253 30.0208C857.093 30.6736 855.654 31 853.938 31H842.532ZM846.957 26.8839H853.394C854.155 26.8839 854.838 26.7328 855.443 26.4306C856.047 26.1163 856.519 25.6811 856.857 25.125C857.208 24.5569 857.383 23.886 857.383 23.1123C857.383 22.4112 857.232 21.7826 856.93 21.2265C856.627 20.6705 856.186 20.2292 855.606 19.9029C855.026 19.5644 854.331 19.3952 853.521 19.3952H846.957V26.8839ZM846.957 15.3153H852.832C853.46 15.3153 854.022 15.1944 854.518 14.9527C855.014 14.7109 855.407 14.3543 855.697 13.8828C855.987 13.4114 856.132 12.8312 856.132 12.1421C856.132 11.2355 855.842 10.48 855.261 9.87555C854.681 9.27113 853.871 8.96892 852.832 8.96892H846.957V15.3153ZM874.06 31.544C872.102 31.544 870.391 31.1028 868.928 30.2203C867.466 29.3378 866.329 28.123 865.519 26.5757C864.722 25.0162 864.323 23.2272 864.323 21.2084C864.323 19.1534 864.734 17.3522 865.556 15.8049C866.378 14.2576 867.52 13.0487 868.983 12.1784C870.445 11.308 872.138 10.8728 874.06 10.8728C876.03 10.8728 877.747 11.3141 879.209 12.1965C880.672 13.079 881.809 14.2999 882.618 15.8593C883.428 17.4066 883.833 19.1896 883.833 21.2084C883.833 23.2393 883.422 25.0344 882.6 26.5938C881.79 28.1411 880.654 29.356 879.191 30.2384C877.729 31.1088 876.018 31.544 874.06 31.544ZM874.06 27.446C875.801 27.446 877.094 26.8658 877.94 25.7053C878.786 24.5448 879.209 23.0458 879.209 21.2084C879.209 19.3105 878.78 17.7995 877.922 16.6753C877.064 15.539 875.776 14.9708 874.06 14.9708C872.887 14.9708 871.92 15.2367 871.159 15.7686C870.409 16.2884 869.853 17.0198 869.49 17.9627C869.128 18.8935 868.946 19.9754 868.946 21.2084C868.946 23.1063 869.376 24.6234 870.234 25.7597C871.104 26.8839 872.38 27.446 874.06 27.446ZM888.191 31V4.34511H892.561V31H888.191ZM905.844 31.544C904.043 31.544 902.471 31.0907 901.13 30.184C899.788 29.2774 898.748 28.0444 898.011 26.485C897.273 24.9256 896.905 23.1667 896.905 21.2084C896.905 19.2259 897.273 17.461 898.011 15.9137C898.76 14.3543 899.818 13.1273 901.184 12.2328C902.55 11.3262 904.158 10.8728 906.007 10.8728C907.869 10.8728 909.428 11.3262 910.685 12.2328C911.955 13.1273 912.916 14.3543 913.568 15.9137C914.221 17.4731 914.548 19.238 914.548 21.2084C914.548 23.1546 914.221 24.9135 913.568 26.485C912.916 28.0444 911.943 29.2774 910.649 30.184C909.356 31.0907 907.754 31.544 905.844 31.544ZM906.515 27.6273C907.687 27.6273 908.63 27.3614 909.344 26.8295C910.069 26.2855 910.595 25.53 910.921 24.5629C911.26 23.5959 911.429 22.4777 911.429 21.2084C911.429 19.927 911.26 18.8089 910.921 17.8539C910.595 16.8868 910.081 16.1373 909.38 15.6054C908.679 15.0615 907.772 14.7895 906.66 14.7895C905.487 14.7895 904.52 15.0796 903.759 15.6598C902.997 16.228 902.435 17.0017 902.072 17.9808C901.71 18.9479 901.528 20.0237 901.528 21.2084C901.528 22.4052 901.704 23.4931 902.054 24.4723C902.417 25.4393 902.967 26.207 903.704 26.7751C904.442 27.3433 905.379 27.6273 906.515 27.6273ZM911.429 31V17.2555H910.885V4.88909H915.291V31H911.429ZM929.024 31.544C927.066 31.544 925.355 31.1028 923.893 30.2203C922.43 29.3378 921.294 28.123 920.484 26.5757C919.686 25.0162 919.287 23.2272 919.287 21.2084C919.287 19.1534 919.698 17.3522 920.52 15.8049C921.342 14.2576 922.484 13.0487 923.947 12.1784C925.41 11.308 927.102 10.8728 929.024 10.8728C930.995 10.8728 932.711 11.3141 934.174 12.1965C935.637 13.079 936.773 14.2999 937.583 15.8593C938.393 17.4066 938.798 19.1896 938.798 21.2084C938.798 23.2393 938.387 25.0344 937.565 26.5938C936.755 28.1411 935.618 29.356 934.156 30.2384C932.693 31.1088 930.983 31.544 929.024 31.544ZM929.024 27.446C930.765 27.446 932.058 26.8658 932.905 25.7053C933.751 24.5448 934.174 23.0458 934.174 21.2084C934.174 19.3105 933.745 17.7995 932.886 16.6753C932.028 15.539 930.741 14.9708 929.024 14.9708C927.852 14.9708 926.885 15.2367 926.123 15.7686C925.374 16.2884 924.817 17.0198 924.455 17.9627C924.092 18.8935 923.911 19.9754 923.911 21.2084C923.911 23.1063 924.34 24.6234 925.198 25.7597C926.069 26.8839 927.344 27.446 929.024 27.446Z" fill="#0A2640"/>
<path d="M806.765 17H821.082C825.966 17 829.924 20.9587 829.924 25.8421C829.924 30.7255 825.966 34.6842 821.082 34.6842H806.765V17Z" fill="white"/>
<path d="M806.765 1.52637H816.244C819.907 1.52637 822.876 4.49543 822.876 8.15795C822.876 11.8205 819.907 14.7895 816.244 14.7895H806.765V1.52637Z" fill="white"/>
<g clip-path="url(#clip5_0_759)">
<g clip-path="url(#clip6_0_759)">
<path d="M1016.92 3.16588C1016.89 3.09373 1016.86 3.01493 1016.86 2.93397C1016.85 2.85301 1016.86 2.77147 1016.88 2.69403C1016.91 2.61658 1016.95 2.54473 1017 2.4826C1017.05 2.42047 1017.12 2.36926 1017.19 2.3319C1019.4 1.20591 1021.86 0.648681 1024.35 0.710438C1026.83 0.772195 1029.26 1.451 1031.41 2.68566C1031.49 2.72632 1031.55 2.78057 1031.6 2.8453C1031.65 2.91002 1031.68 2.98393 1031.7 3.06276C1031.72 3.14159 1031.73 3.22379 1031.72 3.30461C1031.71 3.38542 1031.68 3.46326 1031.64 3.53363L1024.52 15.7549C1024.46 15.8485 1024.39 15.9262 1024.29 15.9801C1024.2 16.034 1024.09 16.0623 1023.98 16.0621H1023.97C1023.86 16.0592 1023.75 16.0266 1023.66 15.9678C1023.56 15.909 1023.48 15.8261 1023.43 15.7277L1016.92 3.16588ZM1023.6 19.3215V19.3202L1017.09 6.75843C1017.02 6.613 1016.89 6.50339 1016.73 6.45351C1016.57 6.40364 1016.41 6.41757 1016.26 6.49225C1014.52 7.38175 1012.98 8.6051 1011.72 10.0921C1010.46 11.579 1009.51 13.3004 1008.91 15.1572C1008.32 17.0141 1008.1 18.97 1008.26 20.9126C1008.43 22.8552 1008.97 24.7463 1009.87 26.4774C1010.76 28.2085 1011.99 29.7454 1013.49 31C1014.98 32.2546 1016.7 33.2021 1018.56 33.7882C1020.42 34.3743 1022.38 34.5875 1024.32 34.4154C1026.26 34.2434 1028.15 33.6895 1029.88 32.7856C1030.02 32.7096 1030.13 32.5794 1030.18 32.4232C1030.23 32.2671 1030.22 32.0977 1030.14 31.9521L1023.6 19.3215ZM1031.23 31.195L1031.28 31.2941C1031.36 31.4401 1031.49 31.5512 1031.64 31.6037C1031.7 31.6249 1031.77 31.6333 1031.84 31.6285C1031.94 31.6258 1032.03 31.6048 1032.12 31.5666C1032.35 31.4548 1032.57 31.3308 1032.78 31.195C1033.41 30.8295 1034.01 30.4153 1034.58 29.9563H1030.59L1031.23 31.195ZM1029.94 28.7177H1035.93C1036.31 28.3312 1036.67 27.9172 1036.99 27.479H1029.3L1029.94 28.7177ZM1028.67 26.2404H1037.87C1038.12 25.8427 1038.35 25.429 1038.55 25.0018H1028.02L1028.67 26.2404ZM1027.38 23.7631H1039.1C1039.26 23.3588 1039.4 22.9452 1039.52 22.5245H1026.74L1027.38 23.7631ZM1026.09 21.2858H1039.83C1039.9 20.8771 1039.96 20.4683 1040 20.0472H1025.46L1026.09 21.2858ZM1032.73 5.62941C1032.66 5.58618 1032.58 5.55829 1032.5 5.54761C1032.42 5.53693 1032.34 5.5437 1032.26 5.56748C1032.18 5.5858 1032.1 5.62058 1032.04 5.66962C1031.97 5.71866 1031.92 5.78089 1031.88 5.85237L1031.54 6.42214H1033.93C1033.55 6.1366 1033.14 5.87198 1032.73 5.62941ZM1035.43 7.66078H1030.82L1030.1 8.89942H1036.61C1036.24 8.46281 1035.85 8.04915 1035.43 7.66078ZM1037.54 10.1381H1029.37L1028.66 11.3767H1038.29C1038.07 10.9472 1037.82 10.5333 1037.54 10.1381ZM1038.89 12.6153H1027.94L1027.22 13.854H1039.37C1039.23 13.4322 1039.07 13.0187 1038.89 12.6153ZM1039.72 15.0926H1026.49L1025.77 16.3313H1039.94C1039.89 15.9143 1039.82 15.5006 1039.72 15.0926ZM1040.06 17.5699H1025.05L1024.75 18.0778C1024.7 18.1672 1024.67 18.2691 1024.67 18.3734C1024.67 18.4777 1024.69 18.5807 1024.74 18.6723L1024.82 18.8086H1040.09C1040.1 18.6847 1040.1 18.5484 1040.1 18.4246C1040.1 18.1397 1040.09 17.8548 1040.06 17.5699Z" fill="#0A2640"/>
<path d="M1016.64 5.88004C1016.41 5.44981 1015.88 5.28302 1015.46 5.5338C1012.16 7.51916 1009.7 10.6551 1008.55 14.3539C1007.32 18.3341 1007.72 22.6399 1009.67 26.3243C1011.61 30.0087 1014.94 32.7698 1018.92 34.0002C1022.62 35.1436 1026.6 34.8779 1030.1 33.2741C1030.54 33.0715 1030.71 32.5363 1030.48 32.106L1023.56 18.993L1016.64 5.88004Z" fill="#0A2640"/>
</g>
<path d="M1062.2 6.96001C1063.92 6.96001 1065.39 7.23629 1066.6 7.78886C1067.81 8.34142 1068.74 9.13839 1069.37 10.1798C1070.01 11.2211 1070.33 12.4857 1070.33 13.9733C1070.33 15.461 1070.01 16.7255 1069.37 17.7669C1068.74 18.8083 1067.81 19.6053 1066.6 20.1578C1065.39 20.7104 1063.92 20.9867 1062.2 20.9867H1058.02V28H1052.54V6.96001H1062.2ZM1061.34 16.8743C1062.49 16.8743 1063.35 16.6405 1063.92 16.173C1064.52 15.6842 1064.81 14.951 1064.81 13.9733C1064.81 12.9957 1064.52 12.2731 1063.92 11.8056C1063.35 11.3168 1062.49 11.0724 1061.34 11.0724H1058.02V16.8743H1061.34ZM1073.45 28V12.0606H1078.23L1078.46 15.5035C1078.86 14.3134 1079.46 13.3889 1080.24 12.7301C1081.05 12.0712 1082.07 11.7418 1083.3 11.7418C1083.71 11.7418 1084.05 11.7737 1084.32 11.8375C1084.62 11.9012 1084.85 11.9862 1085.02 12.0925L1084.48 16.5555C1084.27 16.4705 1083.99 16.4068 1083.65 16.3642C1083.34 16.3005 1082.94 16.2686 1082.47 16.2686C1081.84 16.2686 1081.24 16.4068 1080.69 16.683C1080.14 16.9593 1079.69 17.3737 1079.35 17.9263C1079.03 18.4576 1078.87 19.1377 1078.87 19.9665V28H1073.45ZM1094.74 28.3188C1092.98 28.3188 1091.45 27.9894 1090.15 27.3305C1088.88 26.6717 1087.89 25.726 1087.19 24.4933C1086.49 23.2607 1086.14 21.773 1086.14 20.0303C1086.14 18.2876 1086.49 16.7999 1087.19 15.5673C1087.89 14.3346 1088.87 13.3889 1090.12 12.7301C1091.4 12.0712 1092.85 11.7418 1094.49 11.7418C1096.17 11.7418 1097.59 12.0712 1098.76 12.7301C1099.95 13.3676 1100.85 14.2602 1101.47 15.4079C1102.09 16.5343 1102.39 17.8307 1102.39 19.2971C1102.39 19.6796 1102.38 20.0622 1102.36 20.4447C1102.34 20.8273 1102.31 21.1461 1102.27 21.4011H1089.64V18.5001H1099.87L1097.29 19.4884C1097.29 18.2132 1097.06 17.2356 1096.59 16.5555C1096.15 15.8754 1095.44 15.5354 1094.49 15.5354C1093.81 15.5354 1093.22 15.6948 1092.73 16.0136C1092.27 16.3324 1091.91 16.8318 1091.65 17.5119C1091.42 18.192 1091.3 19.0633 1091.3 20.1259C1091.3 21.1673 1091.44 22.0174 1091.71 22.6762C1091.99 23.3138 1092.38 23.7814 1092.89 24.0789C1093.4 24.3552 1094.02 24.4933 1094.74 24.4933C1095.55 24.4933 1096.19 24.3339 1096.66 24.0152C1097.14 23.6964 1097.51 23.2501 1097.74 22.6762L1102.07 24.1108C1101.78 25.0246 1101.26 25.8004 1100.51 26.4379C1099.79 27.0543 1098.92 27.5218 1097.9 27.8406C1096.9 28.1594 1095.85 28.3188 1094.74 28.3188ZM1112.12 28.3188C1110.53 28.3188 1109.04 28.0638 1107.66 27.5537C1106.3 27.0224 1105.17 26.2679 1104.28 25.2903L1106.83 22.2937C1107.36 22.9738 1108.06 23.5476 1108.93 24.0152C1109.82 24.4615 1110.81 24.6846 1111.9 24.6846C1112.56 24.6846 1113.1 24.589 1113.52 24.3977C1113.95 24.2064 1114.16 23.9089 1114.16 23.5051C1114.16 23.2076 1114.05 22.9738 1113.84 22.8038C1113.63 22.6125 1113.2 22.4531 1112.57 22.3256L1110.33 21.8793C1108.34 21.4755 1106.91 20.8804 1106.06 20.0941C1105.23 19.2865 1104.82 18.2345 1104.82 16.9381C1104.82 16.0667 1105.09 15.2379 1105.62 14.4515C1106.15 13.6439 1106.97 12.9957 1108.07 12.5069C1109.18 11.9969 1110.59 11.7418 1112.31 11.7418C1113.93 11.7418 1115.35 11.9756 1116.58 12.4432C1117.82 12.9107 1118.79 13.5908 1119.52 14.4834L1116.93 17.4162C1116.42 16.7787 1115.76 16.2792 1114.96 15.9179C1114.15 15.5567 1113.34 15.376 1112.53 15.376C1112.02 15.376 1111.59 15.4291 1111.23 15.5354C1110.89 15.6204 1110.63 15.7479 1110.46 15.9179C1110.29 16.088 1110.21 16.3005 1110.21 16.5555C1110.21 16.8318 1110.33 17.0762 1110.59 17.2887C1110.87 17.48 1111.37 17.65 1112.09 17.7988L1114.99 18.3726C1116.63 18.6701 1117.8 19.2121 1118.53 19.9984C1119.25 20.7848 1119.61 21.7305 1119.61 22.8356C1119.61 23.877 1119.33 24.8121 1118.78 25.641C1118.23 26.4698 1117.4 27.1286 1116.3 27.6175C1115.19 28.085 1113.8 28.3188 1112.12 28.3188ZM1129.09 6.99189V22.3256C1129.09 23.0907 1129.27 23.6432 1129.63 23.9833C1130.01 24.3021 1130.53 24.4615 1131.19 24.4615C1131.7 24.4615 1132.14 24.4083 1132.5 24.3021C1132.88 24.1745 1133.22 23.9939 1133.52 23.7601L1134.09 27.1074C1133.56 27.4899 1132.89 27.7875 1132.08 28C1131.27 28.2125 1130.45 28.3188 1129.6 28.3188C1128.38 28.3188 1127.33 28.1488 1126.44 27.8087C1125.57 27.4687 1124.89 26.9267 1124.4 26.1829C1123.93 25.4391 1123.69 24.4508 1123.67 23.2182V8.49019L1129.09 6.99189ZM1133.84 12.0606V15.9179H1120.92V12.0606H1133.84ZM1143.93 11.7418C1145.6 11.7418 1147.07 12.0712 1148.33 12.7301C1149.6 13.3676 1150.59 14.3134 1151.29 15.5673C1152.01 16.7999 1152.37 18.2876 1152.37 20.0303C1152.37 21.773 1152.01 23.2713 1151.29 24.5252C1150.59 25.7579 1149.6 26.7036 1148.33 27.3624C1147.07 28 1145.6 28.3188 1143.93 28.3188C1142.29 28.3188 1140.83 28 1139.56 27.3624C1138.28 26.7036 1137.28 25.7579 1136.56 24.5252C1135.86 23.2713 1135.51 21.773 1135.51 20.0303C1135.51 18.2876 1135.86 16.7999 1136.56 15.5673C1137.28 14.3134 1138.28 13.3676 1139.56 12.7301C1140.83 12.0712 1142.29 11.7418 1143.93 11.7418ZM1143.93 15.5992C1143.31 15.5992 1142.78 15.7479 1142.33 16.0455C1141.89 16.343 1141.55 16.8212 1141.31 17.48C1141.08 18.1388 1140.96 18.9889 1140.96 20.0303C1140.96 21.0717 1141.08 21.9218 1141.31 22.5806C1141.55 23.2182 1141.89 23.6964 1142.33 24.0152C1142.78 24.3127 1143.31 24.4615 1143.93 24.4615C1144.56 24.4615 1145.11 24.3127 1145.55 24.0152C1146 23.6964 1146.34 23.2182 1146.57 22.5806C1146.81 21.9218 1146.92 21.0717 1146.92 20.0303C1146.92 18.9889 1146.81 18.1388 1146.57 17.48C1146.34 16.8212 1146 16.343 1145.55 16.0455C1145.11 15.7479 1144.56 15.5992 1143.93 15.5992Z" fill="#0A2640"/>
</g>
</g>
<defs>
<clipPath id="clip0_0_759">
<rect width="1119" height="48.825" fill="white" transform="translate(0 0.550049)"/>
</clipPath>
<clipPath id="clip1_0_759">
<rect width="146.382" height="42" fill="white" transform="translate(201 -4)"/>
</clipPath>
<clipPath id="clip2_0_759">
<rect width="32.745" height="34.8351" fill="white" transform="translate(200.809 0.153809)"/>
</clipPath>
<clipPath id="clip3_0_759">
<rect width="146.382" height="42" fill="white" transform="translate(604.382 -4)"/>
</clipPath>
<clipPath id="clip4_0_759">
<rect width="32.745" height="34.8351" fill="white" transform="translate(604.191 0.153809)"/>
</clipPath>
<clipPath id="clip5_0_759">
<rect width="146.382" height="42" fill="white" transform="translate(1007.76 -4)"/>
</clipPath>
<clipPath id="clip6_0_759">
<rect width="32.745" height="34.8351" fill="white" transform="translate(1007.57 0.153809)"/>
</clipPath>
</defs>
</svg>
